<?xml version="1.0" standalone="no"?>
<!DOCTYPE svg PUBLIC "-//W3C//DTD SVG 20010904//EN"
 "http://www.w3.org/TR/2001/REC-SVG-20010904/DTD/svg10.dtd">
<svg version="1.0" xmlns="http://www.w3.org/2000/svg"
 width="258.000000pt" height="258.000000pt" viewBox="0 0 258.000000 258.000000"
 preserveAspectRatio="xMidYMid meet">
<metadata>
Created by potrace 1.14, written by Peter Selinger 2001-2017
</metadata>
<g transform="translate(0.000000,258.000000) scale(0.100000,-0.100000)"
fill="#000000" stroke="none">
<path d="M830 1497 l-55 -12 0 -300 0 -300 35 -3 c21 -2 44 -13 59 -28 12 -14
26 -23 29 -19 4 3 1 9 -5 13 -7 4 -16 19 -21 32 -7 20 -16 25 -43 25 l-34 0 0
279 0 280 50 13 c28 7 101 13 164 13 91 0 127 -4 175 -21 34 -12 65 -25 71
-30 14 -14 42 -11 88 10 70 33 125 42 235 42 122 0 190 -16 198 -46 2 -11 3
-137 2 -280 l-3 -260 -45 -3 c-33 -3 -47 1 -57 14 -12 16 -13 16 -13 -5 0 -83
-97 -104 -136 -29 -18 34 -2 76 33 84 21 6 23 11 18 35 -5 22 -3 29 9 29 28 0
17 20 -14 27 -17 3 -33 9 -36 14 -2 4 -17 4 -31 -2 -15 -6 -37 -8 -49 -5 -14
4 -24 1 -27 -8 -6 -16 -100 -46 -144 -46 -29 0 -107 21 -139 38 -41 21 -102
29 -125 16 -13 -6 -28 -10 -35 -7 -18 7 -29 -18 -13 -28 11 -7 12 -12 2 -28
-10 -16 -8 -24 17 -50 26 -27 28 -34 19 -58 -5 -16 -17 -34 -26 -40 -15 -11
-15 -13 -1 -13 8 0 23 9 33 20 14 16 26 18 64 14 63 -7 129 -23 173 -41 29
-12 41 -13 52 -4 8 7 29 16 47 21 28 8 39 6 69 -15 42 -29 94 -42 104 -26 4 6
29 11 56 11 43 0 52 4 78 35 27 34 32 36 83 33 l54 -3 3 275 c1 151 0 285 -3
297 -7 31 -55 42 -205 49 -128 6 -159 1 -276 -47 -27 -11 -37 -10 -70 6 -21
10 -61 24 -89 31 -61 17 -248 17 -325 1z m485 -637 c-3 -5 -19 -10 -36 -10
-16 0 -29 5 -29 10 0 6 16 10 36 10 21 0 33 -4 29 -10z"/>
<path d="M1076 1224 c-20 -19 -20 -63 -1 -88 18 -23 54 -24 88 -1 31 20 35 50
11 83 -18 26 -74 30 -98 6z m74 -19 c0 -8 -4 -15 -10 -15 -5 0 -10 7 -10 15 0
8 5 15 10 15 6 0 10 -7 10 -15z"/>
<path d="M1397 1222 c-22 -24 -21 -55 1 -80 27 -31 55 -35 85 -11 30 23 34 54
11 87 -19 28 -74 30 -97 4z m43 -17 c0 -8 -7 -15 -15 -15 -16 0 -20 12 -8 23
11 12 23 8 23 -8z"/>
<path d="M990 1139 c0 -5 5 -7 10 -4 6 3 10 8 10 11 0 2 -4 4 -10 4 -5 0 -10
-5 -10 -11z"/>
<path d="M923 823 c9 -2 23 -2 30 0 6 3 -1 5 -18 5 -16 0 -22 -2 -12 -5z"/>
</g>
</svg>
